<?xml version="1.0" encoding="UTF-8"?>
<svg width="420px" height="200px" viewBox="0 0 420 200" version="1.1" xmlns="http://www.w3.org/2000/svg" xmlns:xlink="http://www.w3.org/1999/xlink">
    <title>globe</title>
    <defs>
        <path d="M-2.84217094e-14,0 L-2.84217094e-14,200 L200,200 L200,0 M98,0 C121.11743,32.255571 163.654496,43.9324125 200,28 L200,35 C159.713004,51.9176279 113.103591,37.0873603 90,0 M43,0 C67.6470002,62.4103061 135.194172,96.3990103 200,79 L200,86 C131.358896,103.710918 60.4637804,66.5342108 36,0 M-2.84217094e-14,35 C38.2224869,107.799095 118.93486,147.751719 200,134 L200,141 C120.521237,154.303302 41.0461848,117.347403 -2.84217094e-14,48 M-5.68434189e-14,110 C52.1993442,163.093421 126.084348,188.953173 200,180 L200,186 C126.796193,195.238496 53.3271762,170.99372 -5.68434189e-14,120" id="path-1"></path>
        <path d="M-2.84217094e-14,0 L-2.84217094e-14,200 L200,200 L200,0 M98,0 C121.11743,32.255571 163.654496,43.9324125 200,28 L200,35 C159.713004,51.9176279 113.103591,37.0873603 90,0 M43,0 C67.6470002,62.4103061 135.194172,96.3990103 200,79 L200,86 C131.358896,103.710918 60.4637804,66.5342108 36,0 M-2.84217094e-14,35 C38.2224869,107.799095 118.93486,147.751719 200,134 L200,141 C120.521237,154.303302 41.0461848,117.347403 -2.84217094e-14,48 M-5.68434189e-14,110 C52.1993442,163.093421 126.084348,188.953173 200,180 L200,186 C126.796193,195.238496 53.3271762,170.99372 -5.68434189e-14,120" id="path-3"></path>
    </defs>
    <g id="Page-1" stroke="none" stroke-width="1" fill="none" fill-rule="evenodd">
        <g id="globe" transform="translate(-0.000000, 0.000000)">
            <g id="Group">
                <mask id="mask-2" fill="white">
                    <use xlink:href="#path-1"></use>
                </mask>
                <g id="Shape"></g>
                <path d="M131,11 C89.6004025,9.26926173 51.4217807,33.2495706 35.0057776,71.294767 C18.5897745,109.339963 27.3372707,153.568277 57,182.5 C13.1602,160.007938 -5.73547445,107.379544 13.7854532,62.1384754 C33.3063808,16.8974067 84.5587503,-5.46302646 131,11 M143,16.6 C186.816106,39.17123 205.689389,91.8035925 186.200796,137.075066 C166.712204,182.34654 115.510283,204.81273 69,188.5 C110.580677,190.418536 149.001348,166.3793 165.459922,128.146476 C181.918497,89.9136525 172.97255,45.4839003 143,16.6 M131.5,18 C92.6371584,16.8999345 57.0261977,39.5907626 41.604957,75.2799197 C26.1837163,110.969077 34.064925,152.452818 61.5,180 L131.5,18 Z M138.5,21 C165.935075,48.5471824 173.816284,90.0309232 158.395043,125.72008 C142.973802,161.409237 107.362842,184.100066 68.5,183 L138.5,21 Z" id="Shape" fill-opacity="0.5" fill="#2675B9" fill-rule="nonzero" mask="url(#mask-2)"></path>
            </g>
            <g id="Group" transform="translate(220.000000, 0.000000)">
                <g id="globe-symbol" transform="translate(100.000000, 100.000000) scale(-1, 1) translate(-100.000000, -100.000000) ">
                    <mask id="mask-4" fill="white">
                        <use xlink:href="#path-3"></use>
                    </mask>
                    <g id="Shape"></g>
                    <path d="M131,11 C89.6004025,9.26926173 51.4217807,33.2495706 35.0057776,71.294767 C18.5897745,109.339963 27.3372707,153.568277 57,182.5 C13.1602,160.007938 -5.73547445,107.379544 13.7854532,62.1384754 C33.3063808,16.8974067 84.5587503,-5.46302646 131,11 M143,16.6 C186.816106,39.17123 205.689389,91.8035925 186.200796,137.075066 C166.712204,182.34654 115.510283,204.81273 69,188.5 C110.580677,190.418536 149.001348,166.3793 165.459922,128.146476 C181.918497,89.9136525 172.97255,45.4839003 143,16.6 M131.5,18 C92.6371584,16.8999345 57.0261977,39.5907626 41.604957,75.2799197 C26.1837163,110.969077 34.064925,152.452818 61.5,180 L131.5,18 Z M138.5,21 C165.935075,48.5471824 173.816284,90.0309232 158.395043,125.72008 C142.973802,161.409237 107.362842,184.100066 68.5,183 L138.5,21 Z" id="Shape" fill-opacity="0.5" fill="#2675B9" fill-rule="nonzero" mask="url(#mask-4)"></path>
                </g>
            </g>
        </g>
    </g>
</svg>